<svg id="Layer_1" data-name="Layer 1" xmlns="http://www.w3.org/2000/svg" viewBox="0 0 300 300"><defs><style>.cls-1{fill:#0284b3;}.cls-2{fill:#d9e15c;}.cls-3{fill:#8eb74a;}.cls-4{fill:#02c2f2;}.cls-5{fill:#176c80;}</style></defs><path class="cls-1" d="M234.27,159.89a17,17,0,0,1-6.12,12.27c-4.87,3.92-10,7.53-15.09,11.15a351.08,351.08,0,0,0-40.84,33.9,477.58,477.58,0,0,0-34.74,37.37c-6.47,7.74-12.71,15.66-19,23.5l-.89,1c0-.47-.09-.76-.09-1.05V216.85c0-4.28,1.77-7.87,4.31-11.15a273.69,273.69,0,0,1,25.53-28.8c13.37-13.06,28.3-24.17,43.32-35.16,6-4.37,12-8.61,18-12.9l.4-.25a83.32,83.32,0,0,0,17.84-15.46,38.59,38.59,0,0,0,3.88-5.46c1.25-2.12,2.21-4.42,3.29-6.64,0,.39,0,.79,0,1.18q0,28.1,0,56.18A12.72,12.72,0,0,0,234.27,159.89Z"/><path class="cls-2" d="M65.6,156.29c0-.43-.07-.86-.07-1.3q0-27.39,0-54.8a17.46,17.46,0,0,1,7.2-14.52c4.62-3.53,9.45-6.77,14.29-10a206.69,206.69,0,0,0,20.48-14.91c6.4-5.48,12.67-11.14,18.64-17.08,6.36-6.34,12.3-13.1,18.41-19.69.86-.93,1.65-1.92,2.69-3.13,0,.73.08,1.06.08,1.4,0,18.15.06,36.3,0,54.45a16,16,0,0,1-5.46,12.58c-3,2.6-6.23,5-9.36,7.47q-5,4-10.09,8c-3.92,3.11-7.86,6.2-11.78,9.31q-6.52,5.18-13,10.38c-1.41,1.12-2.83,2.22-4.21,3.37a5.29,5.29,0,0,0-.75,1c-1.44-1.08-2.89-2.15-4.32-3.26-3.74-2.91-7.58-5.71-11.18-8.8a35.33,35.33,0,0,1-7.81-9.1c-1.33-2.33-2.46-4.78-3.68-7.18l.14-.12v1.39q0,26.64,0,53.27C65.73,155.45,65.64,155.87,65.6,156.29Z"/><path class="cls-3" d="M65.6,156.29c0-.42.13-.84.13-1.27q0-26.64,0-53.27v-1.39l-.14.12c1.22,2.4,2.35,4.85,3.68,7.18a35.33,35.33,0,0,0,7.81,9.1c3.6,3.09,7.44,5.89,11.18,8.8,1.43,1.11,2.88,2.18,4.32,3.26l30.15,22.88c3.8,2.88,7.6,5.74,11.38,8.62,4.48,3.42,5.23,8.64,1.58,12.92-3.88,4.55-8.07,8.83-12,13.31s-7.65,8.87-11.48,13.3a2.33,2.33,0,0,1-.38.29c-1.72-1.45-3.45-2.92-5.2-4.36-7.8-6.46-16.23-12-24.69-17.54a99.55,99.55,0,0,1-10.26-7.51C67.3,167,65.51,162,65.6,156.29Z"/><path class="cls-4" d="M234.07,101c-1.08,2.22-2,4.52-3.29,6.64a38.59,38.59,0,0,1-3.88,5.46,83.32,83.32,0,0,1-17.84,15.46l-.4.25L204,125Q184.53,108.8,165.1,92.63c-1.62-1.35-3.11-2.87-4.65-4.32a9,9,0,0,1-.26-12.81c4.78-4.7,9.59-9.36,14.32-14.11A48.42,48.42,0,0,0,182.94,51a3.28,3.28,0,0,1,.42-.51c2.16,1.83,4.24,3.72,6.46,5.45,8.65,6.75,17.34,13.43,26,20.16,4.36,3.38,8.83,6.65,13,10.26a16.57,16.57,0,0,1,5.64,13q.06,29.47,0,59a5.66,5.66,0,0,1-.12.81V99h-.18Z"/><path class="cls-5" d="M234.07,101l.1-2h.18v60.16l-.08.71a12.72,12.72,0,0,1-.16-1.5q0-28.09,0-56.18C234.1,101.82,234.08,101.42,234.07,101Z"/></svg>